<svg xmlns="http://www.w3.org/2000/svg" viewBox="0 0 280 48" fill="none">
  <!-- VERTIGO wordmark - light version for dark backgrounds -->
  <defs>
    <linearGradient id="v-grad" x1="0" y1="0" x2="1" y2="1">
      <stop offset="0%" stop-color="#E85D15"/>
      <stop offset="100%" stop-color="#FF7A33"/>
    </linearGradient>
  </defs>
  <!-- V with orange accent -->
  <path d="M0 8h7.5L18 32.5 28.5 8H36L21.5 42h-7L0 8z" fill="url(#v-grad)"/>
  <!-- E -->
  <path d="M42 8h22v6H49v7.5h13v6H49V36h15.5v6H42V8z" fill="#F0F0F5"/>
  <!-- R with horizontal cut -->
  <path d="M70 8h15c3.5 0 6.2 1 8 3 1.8 2 2.7 4.3 2.7 7 0 2.5-.7 4.6-2.2 6.3-1.4 1.7-3.4 2.8-5.8 3.2L96 42h-8l-7.8-14H77v14h-7V8zm7 6v8.5h7.5c2 0 3.5-.5 4.5-1.5s1.5-2.3 1.5-4c0-1.6-.5-2.9-1.5-3.8-1-1-2.5-1.2-4.5-1.2H77z" fill="#F0F0F5"/>
  <!-- T -->
  <path d="M100 8h24v6h-8.5v28h-7V14H100V8z" fill="#F0F0F5"/>
  <!-- I -->
  <path d="M128 8h7v34h-7V8z" fill="#F0F0F5"/>
  <!-- G -->
  <path d="M142 25c0-5 1.7-9.2 5-12.5 3.4-3.4 7.5-5 12.3-5 3.8 0 7 1 9.5 3l-4 5c-1.7-1.3-3.5-2-5.5-2-3 0-5.5 1.1-7.3 3.3-1.9 2.1-2.8 4.8-2.8 8.2 0 3.3 1 6 2.8 8.2 1.9 2.1 4.3 3.2 7.3 3.2 2.2 0 4-.5 5.3-1.5V29h-6.5v-6H172v16.5c-3.3 2.8-7.3 4.2-12 4.2-4.8 0-8.9-1.7-12.3-5-3.3-3.4-5.1-7.6-5.1-12.5L142 25z" fill="#F0F0F5"/>
  <!-- O -->
  <path d="M178 25c0-5 1.7-9.2 5.2-12.5 3.4-3.4 7.6-5 12.5-5s9 1.7 12.5 5c3.4 3.3 5.2 7.5 5.2 12.5s-1.7 9.2-5.2 12.5c-3.4 3.3-7.6 5-12.5 5s-9-1.7-12.5-5c-3.4-3.3-5.2-7.5-5.2-12.5zm7.2 0c0 3.3 1 6.1 3 8.2 2 2.2 4.5 3.3 7.5 3.3s5.5-1.1 7.5-3.3c2-2.1 3-4.9 3-8.2 0-3.3-1-6.1-3-8.2-2-2.2-4.5-3.3-7.5-3.3s-5.5 1.1-7.5 3.3c-2 2.1-3 4.9-3 8.2z" fill="#F0F0F5"/>
</svg>