<svg xmlns="http://www.w3.org/2000/svg" viewBox="0 0 64 64" width="64" height="64" fill="none" stroke="#00f0ff" stroke-width="2" stroke-linecap="round" stroke-linejoin="round">
  <!-- Party popper cone -->
  <path d="M12 52 L28 28 L36 36 Z"/>
  <!-- Confetti burst lines -->
  <line x1="30" y1="26" x2="36" y2="14"/>
  <line x1="34" y1="22" x2="46" y2="12"/>
  <line x1="38" y1="28" x2="50" y2="20"/>
  <line x1="40" y1="34" x2="52" y2="30"/>
  <!-- Confetti pieces -->
  <circle cx="38" cy="12" r="2" fill="#00f0ff"/>
  <circle cx="50" cy="16" r="1.5" fill="#8b5cf6" stroke="#8b5cf6"/>
  <circle cx="54" cy="26" r="2" fill="#00f0ff"/>
  <rect x="42" y="8" width="3" height="3" rx="0.5" fill="#8b5cf6" stroke="#8b5cf6" transform="rotate(30 43.5 9.5)"/>
  <rect x="28" y="10" width="3" height="3" rx="0.5" fill="#8b5cf6" stroke="#8b5cf6" transform="rotate(-20 29.5 11.5)"/>
  <!-- Star confetti -->
  <path d="M48 8 L49 11 L52 11 L49.5 13 L50.5 16 L48 14 L45.5 16 L46.5 13 L44 11 L47 11 Z" fill="#00f0ff" stroke="none"/>
</svg>