<svg xmlns="http://www.w3.org/2000/svg" viewBox="0 0 24 24" width="24" height="24" fill="#4680C2">
  <path d="M3 3h18v18H3V3zm9.24 13.5h.94s.28-.03.43-.19c.13-.15.13-.42.13-.42s-.02-1.28.58-1.47c.59-.19 1.34 1.24 2.14 1.78.61.42 1.07.33 1.07.33l2.14-.03s1.12-.07.59-.95c-.04-.07-.31-.65-1.6-1.83-1.35-1.24-1.17-1.04.46-3.18.99-1.3 1.38-2.1 1.26-2.44-.12-.32-.84-.24-.84-.24l-2.41.02s-.18-.02-.31.06c-.13.07-.21.24-.21.24s-.38 1.01-.88 1.87c-1.07 1.82-1.49 1.92-1.67 1.8-.41-.27-.31-1.07-.31-1.64 0-1.79.27-2.53-.53-2.72-.27-.06-.46-.1-1.14-.11-.87-.01-1.61 0-2.03.21-.28.14-.49.44-.36.46.16.02.53.1.72.36.25.34.24 1.1.24 1.1s.14 2.1-.33 2.36c-.33.18-.77-.19-1.73-1.85-.49-.85-.86-1.79-.86-1.79s-.07-.17-.2-.26c-.15-.11-.37-.15-.37-.15l-2.29.02s-.34.01-.47.16c-.11.13-.01.41-.01.41s1.77 4.14 3.77 6.23c1.83 1.91 3.92 1.79 3.92 1.79z"/>
</svg>