<svg xmlns="http://www.w3.org/2000/svg" viewBox="0 0 24 24" width="24" height="24" fill="#25D366">
  <path d="M12 2C6.48 2 2 6.48 2 12c0 1.77.46 3.43 1.27 4.88L2 22l5.23-1.23A9.96 9.96 0 0012 22c5.52 0 10-4.48 10-10S17.52 2 12 2zm0 18c-1.6 0-3.1-.38-4.44-1.06l-.32-.17-3.1.73.78-3.02-.2-.34A7.94 7.94 0 014 12c0-4.41 3.59-8 8-8s8 3.59 8 8-3.59 8-8 8zm4.38-5.97c-.24-.12-1.42-.7-1.64-.78-.22-.08-.38-.12-.54.12-.16.24-.62.78-.76.94-.14.16-.28.18-.52.06-.24-.12-1.01-.37-1.93-1.18-.71-.63-1.19-1.41-1.33-1.65-.14-.24-.02-.37.1-.49.11-.11.24-.28.36-.42.12-.14.16-.24.24-.4.08-.16.04-.3-.02-.42-.06-.12-.54-1.3-.74-1.78-.2-.47-.4-.4-.54-.41h-.46c-.16 0-.42.06-.64.3-.22.24-.84.82-.84 2s.86 2.32.98 2.48c.12.16 1.7 2.59 4.12 3.63.58.25 1.03.4 1.38.51.58.18 1.1.16 1.52.1.46-.07 1.42-.58 1.62-1.14.2-.56.2-1.04.14-1.14-.06-.1-.22-.16-.46-.28z"/>
</svg>